HIERARCHY
ROOT Hips
{
	OFFSET -14.64140 90.27770 -84.91600
	CHANNELS 6 Xposition Yposition Zposition Zrotation Xrotation Yrotation
	JOINT Spine
	{
		OFFSET 0.00000 13.20850 -1.60436
		CHANNELS 3 Zrotation Xrotation Yrotation
		JOINT Spine1
		{
			OFFSET 0.00000 8.61716 0.00000
			CHANNELS 3 Zrotation Xrotation Yrotation
			JOINT Spine2
			{
				OFFSET 0.00000 8.61717 0.00000
				CHANNELS 3 Zrotation Xrotation Yrotation
				JOINT Spine3
				{
					OFFSET 0.00000 8.61717 0.00000
					CHANNELS 3 Zrotation Xrotation Yrotation
					JOINT Neck
					{
						OFFSET 0.00000 11.07920 1.10792
						CHANNELS 3 Zrotation Xrotation Yrotation
						JOINT Neck1
						{
							OFFSET 0.00000 7.08032 0.00000
							CHANNELS 3 Zrotation Xrotation Yrotation
							JOINT Head
							{
								OFFSET 0.00000 7.08031 0.00000
								CHANNELS 3 Zrotation Xrotation Yrotation
								End site
								{
									OFFSET 0.00000 0.00000 0.00000
								}
							}
						}
					}
					JOINT RightShoulder
					{
						OFFSET -0.01000 7.91373 5.19711
						CHANNELS 3 Zrotation Xrotation Yrotation
						JOINT RightArm
						{
							OFFSET -18.41580 0.00000 0.00000
							CHANNELS 3 Zrotation Xrotation Yrotation
							JOINT RightForeArm
							{
								OFFSET -29.11090 0.00000 0.00000
								CHANNELS 3 Zrotation Xrotation Yrotation
								JOINT RightHand
								{
									OFFSET -24.65040 0.00000 0.00000
									CHANNELS 3 Zrotation Xrotation Yrotation
									JOINT RightHandThumb1
									{
										OFFSET -5.35114 -0.85590 3.97906
										CHANNELS 3 Zrotation Xrotation Yrotation
										JOINT RightHandThumb2
										{
											OFFSET -4.52789 0.00000 0.00000
											CHANNELS 3 Zrotation Xrotation Yrotation
											JOINT RightHandThumb3
											{
												OFFSET -2.46976 0.00000 0.00000
												CHANNELS 3 Zrotation Xrotation Yrotation
												End site
												{
													OFFSET 0.00000 0.00000 0.00000
												}
											}
										}
									}
									JOINT RightHandIndex1
									{
										OFFSET -14.26970 0.00000 2.88139
										CHANNELS 3 Zrotation Xrotation Yrotation
										JOINT RightHandIndex2
										{
											OFFSET -5.48836 0.00000 0.00000
											CHANNELS 3 Zrotation Xrotation Yrotation
											JOINT RightHandIndex3
											{
												OFFSET -3.01859 0.00000 0.00000
												CHANNELS 3 Zrotation Xrotation Yrotation
												End site
												{
													OFFSET 0.00000 0.00000 0.00000
												}
											}
										}
									}
									JOINT RightHandMiddle1
									{
										OFFSET -14.26970 0.00000 -0.09147
										CHANNELS 3 Zrotation Xrotation Yrotation
										JOINT RightHandMiddle2
										{
											OFFSET -6.17441 0.00000 0.00000
											CHANNELS 3 Zrotation Xrotation Yrotation
											JOINT RightHandMiddle3
											{
												OFFSET -3.56743 0.00000 0.00000
												CHANNELS 3 Zrotation Xrotation Yrotation
												End site
												{
													OFFSET 0.00000 0.00000 0.00000
												}
											}
										}
									}
									JOINT RightHandRing1
									{
										OFFSET -12.69180 0.00000 -3.06433
										CHANNELS 3 Zrotation Xrotation Yrotation
										JOINT RightHandRing2
										{
											OFFSET -5.62556 0.00000 0.00000
											CHANNELS 3 Zrotation Xrotation Yrotation
											JOINT RightHandRing3
											{
												OFFSET -3.56744 0.00000 0.00000
												CHANNELS 3 Zrotation Xrotation Yrotation
												End site
												{
													OFFSET 0.00000 0.00000 0.00000
												}
											}
										}
									}
									JOINT RightHandPinky1
									{
										OFFSET -11.11390 0.00000 -6.03719
										CHANNELS 3 Zrotation Xrotation Yrotation
										JOINT RightHandPinky2
										{
											OFFSET -4.52789 0.00000 0.00000
											CHANNELS 3 Zrotation Xrotation Yrotation
											JOINT RightHandPinky3
											{
												OFFSET -2.46976 0.00000 0.00000
												CHANNELS 3 Zrotation Xrotation Yrotation
												End site
												{
													OFFSET 0.00000 0.00000 0.00000
												}
											}
										}
									}
								}
							}
						}
					}
					JOINT LeftShoulder
					{
						OFFSET 0.01000 7.91373 5.19711
						CHANNELS 3 Zrotation Xrotation Yrotation
						JOINT LeftArm
						{
							OFFSET 18.41580 0.00000 0.00000
							CHANNELS 3 Zrotation Xrotation Yrotation
							JOINT LeftForeArm
							{
								OFFSET 29.11090 0.00000 0.00000
								CHANNELS 3 Zrotation Xrotation Yrotation
								JOINT LeftHand
								{
									OFFSET 24.65040 0.00000 0.00000
									CHANNELS 3 Zrotation Xrotation Yrotation
									JOINT LeftHandThumb1
									{
										OFFSET 5.35114 -0.85590 3.97906
										CHANNELS 3 Zrotation Xrotation Yrotation
										JOINT LeftHandThumb2
										{
											OFFSET 4.52789 0.00000 0.00000
											CHANNELS 3 Zrotation Xrotation Yrotation
											JOINT LeftHandThumb3
											{
												OFFSET 2.46977 0.00000 0.00000
												CHANNELS 3 Zrotation Xrotation Yrotation
												End site
												{
													OFFSET 0.00000 0.00000 0.00000
												}
											}
										}
									}
									JOINT LeftHandIndex1
									{
										OFFSET 14.26970 0.00000 2.88139
										CHANNELS 3 Zrotation Xrotation Yrotation
										JOINT LeftHandIndex2
										{
											OFFSET 5.48836 0.00000 0.00000
											CHANNELS 3 Zrotation Xrotation Yrotation
											JOINT LeftHandIndex3
											{
												OFFSET 3.01859 0.00000 0.00000
												CHANNELS 3 Zrotation Xrotation Yrotation
												End site
												{
													OFFSET 0.00000 0.00000 0.00000
												}
											}
										}
									}
									JOINT LeftHandMiddle1
									{
										OFFSET 14.26970 0.00000 -0.09147
										CHANNELS 3 Zrotation Xrotation Yrotation
										JOINT LeftHandMiddle2
										{
											OFFSET 6.17440 0.00000 0.00000
											CHANNELS 3 Zrotation Xrotation Yrotation
											JOINT LeftHandMiddle3
											{
												OFFSET 3.56744 0.00000 0.00000
												CHANNELS 3 Zrotation Xrotation Yrotation
												End site
												{
													OFFSET 0.00000 0.00000 0.00000
												}
											}
										}
									}
									JOINT LeftHandRing1
									{
										OFFSET 12.69180 0.00000 -3.06433
										CHANNELS 3 Zrotation Xrotation Yrotation
										JOINT LeftHandRing2
										{
											OFFSET 5.62556 0.00000 0.00000
											CHANNELS 3 Zrotation Xrotation Yrotation
											JOINT LeftHandRing3
											{
												OFFSET 3.56744 0.00000 0.00000
												CHANNELS 3 Zrotation Xrotation Yrotation
												End site
												{
													OFFSET 0.00000 0.00000 0.00000
												}
											}
										}
									}
									JOINT LeftHandPinky1
									{
										OFFSET 11.11390 0.00000 -6.03719
										CHANNELS 3 Zrotation Xrotation Yrotation
										JOINT LeftHandPinky2
										{
											OFFSET 4.52789 0.00000 0.00000
											CHANNELS 3 Zrotation Xrotation Yrotation
											JOINT LeftHandPinky3
											{
												OFFSET 2.46976 0.00000 0.00000
												CHANNELS 3 Zrotation Xrotation Yrotation
												End site
												{
													OFFSET 0.00000 0.00000 0.00000
												}
											}
										}
									}
								}
							}
						}
					}
					JOINT pCube4
					{
						OFFSET 0.00000 10.91090 1.10792
						CHANNELS 3 Zrotation Xrotation Yrotation
						End site
						{
							OFFSET 0.00000 0.00000 0.00000
						}
					}
				}
			}
		}
	}
	JOINT RightUpLeg
	{
		OFFSET -9.98441 0.00000 0.00000
		CHANNELS 3 Zrotation Xrotation Yrotation
		JOINT RightLeg
		{
			OFFSET 0.00000 -42.11790 0.00000
			CHANNELS 3 Zrotation Xrotation Yrotation
			JOINT RightFoot
			{
				OFFSET 0.00000 -45.00020 -0.00001
				CHANNELS 3 Zrotation Xrotation Yrotation
				JOINT RightForeFoot
				{
					OFFSET 0.00000 -3.74820 0.00000
					CHANNELS 3 Zrotation Xrotation Yrotation
					JOINT RightToeBase
					{
						OFFSET 0.00000 0.06325 14.43120
						CHANNELS 3 Zrotation Xrotation Yrotation
						End site
						{
							OFFSET 0.00000 0.00000 0.00000
						}
					}
				}
			}
		}
	}
	JOINT LeftUpLeg
	{
		OFFSET 9.98441 0.00000 0.00000
		CHANNELS 3 Zrotation Xrotation Yrotation
		JOINT LeftLeg
		{
			OFFSET 0.00000 -42.11800 0.00000
			CHANNELS 3 Zrotation Xrotation Yrotation
			JOINT LeftFoot
			{
				OFFSET 0.00000 -45.00070 0.00000
				CHANNELS 3 Zrotation Xrotation Yrotation
				JOINT LeftForeFoot
				{
					OFFSET 0.00000 -3.74824 0.00000
					CHANNELS 3 Zrotation Xrotation Yrotation
					JOINT LeftToeBase
					{
						OFFSET 0.00000 0.06325 14.43110
						CHANNELS 3 Zrotation Xrotation Yrotation
						End site
						{
							OFFSET 0.00000 0.00000 0.00000
						}
					}
				}
			}
		}
	}
}
MOTION
Frames: 4
Frame Time: 0.050000
0.025089973764104434 0.032203363439254 -0.04910280467860337 0.038101627375144526 0.009746586665964342 -0.003623959298786377 -3.45214717633469 -0.6317118685679058 -0.6108411365458881 -1.0931987786011368 3.7953734560059735 0.4450114284029269 -1.3912432152437284 -1.9370546072142845 -0.9154986216991877 0.1604579439051023 0.5079477864623699 -0.8915254762612395 0.1214654442573787 12.496205474310928 0.3704666507694223 0.20228885113597006 -0.09796441107046366 -0.9527679809692958 0.31737498039209827 -14.921838851939674 -0.0842342448051977 -4.918351153117812 1.6230502518824317 -13.923657277155586 64.51307724168119 21.243980374484607 12.870404570800051 5.7903332832468015 2.1789129994964713 62.423715149874425 15.40553186245879 -0.23927547658893128 -2.5458017854480346 4.5543419715198485 -0.15355429272199003 -1.5813344334769968 0.009406907034946663 0.017666466794995964 -56.204100390066 0.03456922589337186 -0.005648378035670277 -56.20656975530951 -38.79075950780221 0.02264343652104098 -0.022744181181978032 -0.008550918858946576 0.014498214193313147 0.04401623922057089 -0.03713494929238615 -0.0206979056966002 -0.04940830582933256 -36.65841016639518 0.027355096267075718 0.04758286804598632 0.030228156432921354 0.004371816484018204 0.017646111661371203 -0.003208461151065258 0.04007669747547116 0.030064460528043405 -19.760196154898242 0.030398036763835456 0.012015432601927108 -0.03223905283741063 0.024636625146791984 -0.03559940886781654 0.04067552860938564 0.01224374690409668 -0.0021585902213641624 24.066707635974087 0.02103471049557324 -0.031129831238309 28.8781826379402 0.0068606790044694055 -0.008982188675017268 28.87880913790888 0.030916932209647637 0.011489411409318648 5.402215460855485 1.1249845523789548 12.576042348869718 -70.05893050530105 28.037637393814947 -10.977895851879266 -44.79451092926701 3.031236866855335 -80.32060869986933 -5.5621081004796284 0.6860723543984392 -0.6704248444612536 -0.4818970329356035 0.04828021003458784 -8.118739945020803 -0.036730585181450594 -0.0008825461534740961 44.55775705635774 0.027573405280262784 -0.03887415838067857 44.53965069622688 12.457659548379027 -0.03664082792186952 -0.0034043183451207583 -0.00972578149412557 -0.0032552834341935915 0.025985148634493516 -0.0057935784524924296 0.04022024888674462 -0.03475165412620741 11.079316886451576 0.00539983838827953 -0.016995172906113482 0.006005569597939399 -0.014895385086996123 -0.03845309920179224 0.042695171672162496 -0.022639630471483374 -0.04326071031522605 4.800577272704722 0.001768314793671871 -0.022154988336267115 0.014495598670231029 0.04054030537461273 -0.030145235628051634 -0.002072969655532692 -0.031831999938191684 -0.027592341255288005 -5.584430738066623 0.0318223045695378 0.01656713864287931 -6.715260589823374 0.021088459161428035 0.02168992389840602 -6.7252775453029 -0.035813815518412305 -0.022436580843643132 -0.016332974797460622 -0.021453515559894883 -0.015974896891791088 8.061564126250534 3.4631340209714394 -19.19316495844249 -0.026124868503728443 10.388526110444934 0.011892745326829319 -5.588969503826815 -15.666779375068515 3.1498576162267553 -0.012695498580526723 -0.01437031326250239 0.003886258084766722 -0.03844818769193543 4.648754604318033 -0.045617155312292185 12.483568721778655 -8.219137749495879 6.849599935855249 0.026832189305660357 46.38209105907222 0.02181062903321792 -4.340213035488661 -14.708012938285707 -3.8767589131424587 0.03205136606284118 -0.02213046833992545 0.03150976769970934 -0.02571577127202473 -10.779185125833463 -0.014676970585080072 
0.0038125035841434264 0.030719152274595398 0.046789978985259294 0.04655335724007949 0.01115592747548983 0.030486867254695838 -3.3532667071432294 -0.6593002864171116 -0.6508982835522164 -1.0638552518472877 3.726233564055517 0.42851993034021846 -1.3359274601467248 -1.8854326142401823 -0.9902297512811663 0.013386838878298744 0.5331624719212531 -0.8223479561836288 -0.043192098607737685 12.506962121033803 0.7272931454039212 0.24342598914859628 -0.11034103229979746 -0.158886635823202 0.22344971820920287 -14.935855194218314 -0.04174009026774296 -4.881468990006108 1.6040018718450586 -13.97431821311087 65.08984932112888 22.083795686812177 11.933533311351265 5.913915287672894 2.4907605405926074 62.7220389886392 15.533790446311288 -0.24804426741105012 -2.4966021841813535 4.510789038880279 -0.11335509654951012 -1.5842668483459796 0.042027149645494005 -0.038345418065753506 -56.25831886010107 -0.024198794386079615 0.0041921672558578454 -56.26361066390009 -38.728395031927185 -0.0436509251916522 0.022024809780764078 -0.01775151778994195 -0.031834164458920615 0.0071329255527318456 0.019002423593737976 0.005399738759007194 0.04924092396841115 -36.72665013804158 0.049796273397777396 0.00364095544802512 0.007918907704075972 0.04991007987294369 0.020323581851935075 -0.02025594878098002 0.018662783225916656 -0.0025555641737497734 -19.726710051316353 0.018086645758157948 -0.007575084149095047 -0.008296298347049414 -0.03553301226775264 0.04280869074578928 0.027092227186975376 -0.04154500231960349 0.03275095568201922 24.082653336003386 -0.023953194305796694 0.031043920071615248 28.89392089325161 -0.02934420886153707 -0.009160234647980535 28.90788230867476 0.019127178383833734 -0.007519740817339081 5.650553581557376 1.180215874390854 12.605886966252417 -70.46199898449906 28.139696264956964 -10.983238008975619 -44.341250627693526 3.118358246134497 -80.26111784805725 -6.144787717755852 0.5055145366938686 -0.6487676655605004 -0.4723768932346488 0.07241718702920194 -8.134689825556435 -0.02595958872796821 -0.021326907744178048 44.52799999023331 -0.04689125073241324 -0.006993704656634712 44.52569449454788 12.470792058875174 0.008885583604905146 0.02074832380572233 0.036531758838621996 -0.033433466078240194 0.011171002422518282 0.0016786182754758036 0.00228197328240906 -0.00901116753505093 11.064200657258041 0.021552590386302254 -0.010835883233606692 -0.006044998924256336 -0.03422907983725386 0.004394551288234745 0.02627150065664028 -0.020013644263995104 -0.020680710870607143 4.756724627014658 -6.219773578694578e-05 0.047706223630717866 -0.007331353685122105 -0.00037556914751544443 0.024469797506801005 -0.01620658190049939 0.028258216073756042 -0.046075549672259145 -5.5864301931636104 0.0166982896065376 -0.042840599962940554 -6.7485578537044235 -0.041012620294886316 0.02979381371774955 -6.736807516291987 -0.015052347716936988 0.0020070144012993853 -0.02414766008398096 0.03438208952453665 0.042603542665179954 8.031495808810725 3.54185146270105 -19.232815321683596 0.03661238933981174 10.400707785443888 0.05233488814537254 -5.618282313199705 -15.661317116924334 3.2189766589317625 0.031070159339467215 0.04785221410505045 -0.027176445452343188 -0.031114805198241606 4.661575237084128 -0.03975714885768427 12.462189672332965 -8.260590369373409 6.929374673884092 -0.003405928428276849 46.40497534812339 -0.0477959427965814 -4.329273769375916 -14.798362436279081 -3.833250510809273 -0.011947760476213667 -0.021315713900151204 0.020496819992692046 -0.020183374990323973 -10.716161864640148 -0.014239718158441553 
0.0003812253668889732 -0.03712953335921995 -0.024987153457233856 -0.0168317356811874 0.04568399920252201 0.017364919702414234 -3.3063851087228575 -0.4886202894940168 -0.689158065709908 -1.051359958091579 3.77432051617052 0.3925656016561524 -1.277539904649595 -1.892676556618394 -1.0979499547751819 -0.03972712700517697 0.5186300077889943 -0.8643991362729222 -0.23714140839657077 12.462813227233239 1.0733264425888536 0.17253196778089086 -0.17782395609705498 0.9157009711743926 0.00890834754833636 -15.07533101997785 0.08133113435360803 -4.529527708797223 1.605997535347813 -14.049038108580495 67.36866428313374 23.315289994599073 9.160040207961783 5.4869140708920545 3.1027453213263034 60.220331818803274 16.520032867680477 -0.23626836550016797 -2.7125529469373784 4.4977959657004 -0.09637407162218553 -1.6372891966274798 0.04704992859736463 -0.01890523263018035 -56.27870199289837 0.03433051322300765 -0.042627863522297596 -56.202840950823784 -38.79701507596926 0.02229348481301183 -0.02641125783889659 0.02977996549945621 0.012338835445128324 0.027092242623400306 -0.016600108305461568 -0.003644276295079404 -0.0036504760797100503 -36.69764778030123 0.013810203812608416 0.007871301823602688 -0.000547184048807603 0.004063353827761743 0.014655948429092775 -0.00502370408303806 0.04883993775423519 0.006126076035495977 -19.775453303327623 0.014703378919568456 -0.0020001406270714122 0.011599471751590986 -0.042979361525661154 -0.03213736193804574 -0.004562939508746239 0.009853090572576172 0.04717750995198107 24.046246039446597 0.04193141448509323 -0.03100721782588528 28.872708065585993 -0.03444562458616259 0.010133474993768423 28.850586455467273 0.011058020970886397 0.02210946720157708 5.871218474936316 1.271458841311 12.6902143959917 -71.07622335102134 28.18037876243186 -10.800403273993727 -43.570295837334626 3.7481485323938735 -80.07306584222236 -7.505166425498055 -0.28639655658464935 -0.2193834829614693 -0.46325237219187115 0.09389408966440599 -8.13315910925102 0.014481362563271698 0.04687644317240488 44.537738167165244 0.01359291610006343 0.041749892553045266 44.55725957756828 12.415889474922702 -0.022121813762569803 0.015013447404129599 0.021634441695616326 0.046217028321435746 0.016860393646368498 0.015845319062355725 0.03136279410153703 -0.0039838833000722905 11.148649214856395 0.023193765325346033 0.0011189657992974435 -0.025916405381889194 -0.012142945763309753 -0.013814285688571619 -0.003645336777811115 -0.03601036984600188 0.04223668978452828 4.736578525129924 -0.02547024793322149 0.023197137213855877 -0.026069433488445846 -0.026507439693623853 0.02192066032365557 -0.048486588118453466 -0.02500826942279629 0.03467016901805456 -5.640000825818785 -0.04119563835544842 -0.0044079041885817785 -6.683060309263673 -0.014773255002295496 0.02861461086375601 -6.6908613182346235 0.02647692943226346 0.027227521809043535 -0.048932872670921584 0.03286859961108746 -0.026455534862838588 8.077658573756286 3.513687801529272 -19.22252520018869 -0.012871146793755542 10.440196335747808 0.036941272030830766 -5.6139499273948505 -15.635421861891794 3.1930662644885337 -0.020585891796301495 0.016075926332796007 0.02130226423728598 0.03169634280206827 4.68051834054716 -0.009703593980032846 12.466863404564123 -8.238431250932454 6.925623362958432 -0.04587224493435813 46.39609971104358 0.016015755733597363 -4.337639835527219 -14.735826442309518 -3.825939280498401 -0.01780047595151859 -0.007011716722617837 -0.02712839334979618 -0.002035163260126829 -10.755653520404588 -0.029274239489093797 
0.04691480981506864 -0.03974293991787273 -0.015258562876577118 -0.02139878799979208 0.011827577752738157 -0.014226968036670937 -3.212436024900813 -0.2556831736822864 -0.6803032618755815 -1.0435661413912107 3.7187548313071805 0.4191227318774345 -1.2941390778181954 -1.9079293448720303 -1.2201658485408 -0.09427038934523066 0.4741264614018296 -0.8533084647608461 -0.40309365421029775 12.431622083252385 1.504105191547896 0.2007544035801096 -0.1783699971296251 2.0328938220236887 -0.13362846479981327 -15.198409364300348 0.15844293956782604 -4.122943745242471 1.4909657563708965 -14.292838212515077 70.23750280963971 25.145477811131315 5.965925572830519 4.830134020307144 3.736881014160875 56.240385245113494 18.073284580744772 -0.2132495165911769 -3.119837325014464 4.559927647861912 -0.15185675443569024 -1.5947003165149713 0.009238415353110157 -0.025177123132060938 -56.232757612648555 0.0393534997110401 0.03288904734964995 -56.262732564072415 -38.78779456983852 -0.0034606791671697988 0.0343911360814432 0.018094545087719696 -0.04277220363899401 -0.04724904074884867 0.04975597515852051 -0.014911100439577312 -0.00030325615517432284 -36.715290811801495 -0.0156371882434242 -0.0018192525313028628 -0.02786056635104435 -0.012862327338735245 -0.013872995333118662 0.021489418581028243 -0.0014958561559205116 0.03642806820674283 -19.734650431110744 0.03613435454332336 -0.020882780444368546 -0.02983279041772465 0.028480197603353852 0.008333152618666843 0.040324348058635655 -0.0021786389391895418 -0.001308121605740015 24.052878737068504 0.0319390603981396 0.04828209473471513 28.88016561661262 -0.016370109331247332 0.0021402610809547243 28.892137468997294 0.01931184685931568 0.018843972849759083 6.123364583354982 1.349134092800897 12.881619514683477 -71.71222620433988 28.112661949947668 -10.635185532729324 -42.668942482138064 4.646126619062149 -79.17043937029726 -9.537204590299298 -1.4585258794868603 0.5154860573023362 -0.4765397471827952 0.04538099885061905 -8.081225852861442 0.020204387787489796 0.0005661772792901061 44.56032124920145 -0.007091599861238269 -0.04159916299729791 44.59819277782016 12.447127102057081 0.003926679255059066 -0.023177788990097915 -0.0185612788690768 0.0475301623144807 -0.02074932521281937 0.006128860638639226 -0.009312580915667425 0.03120043819383412 11.130638661838566 -0.0015609818537637256 -0.03171359739122389 -0.026122785499448926 0.012800920306430008 -0.013731241829847814 0.01908854787016509 0.024781818985478484 -0.01065789866033523 4.788142236517766 0.009880681672113827 0.03880656276287428 -0.03564333073009191 0.007123055125803999 -0.03075398178808862 0.03386184249294638 -0.04768048088295865 -0.004528675120555298 -5.560082006063514 0.007737669867239075 0.003113622024252769 -6.708596548093034 0.03605832933986996 0.0007733251816416433 -6.717733854515222 -0.02907405465482633 0.04195935038432894 -0.010049867570219239 0.04143598182260895 -0.025250067762421426 8.03791385760326 3.4822266876175068 -19.2484545051915 -0.03126629034909593 10.416860030992321 0.06203419859697719 -5.648576929736087 -15.669084048871717 3.154524651821264 0.0006686846060510548 -0.02009387952906874 -0.0067467294263917595 0.027100398862988758 4.708934362988596 0.022126534461219056 12.442739586747187 -8.257590336370884 6.905096901307346 0.03896918382256425 46.35495843250126 0.03281170201732715 -4.294617558854002 -14.759695356602224 -3.8098307214469944 -0.043623904985235065 0.03110147983960318 -0.0355841755235654 -0.037976428567129995 -10.715992906773792 0.04353926738519582 
